<?xml version="1.0" encoding="UTF-8"?>
<svg id="Layer_2" data-name="Layer 2" xmlns="http://www.w3.org/2000/svg" viewBox="0 0 362.65 255.99">
  <g id="Vector">
    <g>
      <path d="m362.65,10.67v149.33c0,5.89-4.78,10.67-10.67,10.67h-64c-5.89,0-10.67,4.78-10.67,10.67v64c0,5.89-4.78,10.67-10.67,10.67H96c-5.89,0-10.67-4.78-10.67-10.67v-64c0-5.89-4.78-10.67-10.67-10.67H10.67c-5.89,0-10.67-4.78-10.67-10.67V10.67C0,4.78,4.78,0,10.67,0h64c5.89,0,10.67,4.78,10.67,10.67v149.33c0,5.89,4.78,10.67,10.67,10.67h170.66c5.89,0,10.67-4.78,10.67-10.67V10.67c0-5.89,4.78-10.67,10.67-10.67h64c5.89,0,10.67,4.78,10.67,10.67Z"/>
      <circle cx="181.32" cy="74.66" r="74.66"/>
    </g>
  </g>
</svg>